<?xml version="1.0" standalone="no"?>
<!DOCTYPE svg PUBLIC "-//W3C//DTD SVG 20010904//EN"
 "http://www.w3.org/TR/2001/REC-SVG-20010904/DTD/svg10.dtd">
<svg version="1.0" xmlns="http://www.w3.org/2000/svg"
 width="32" height="32pt" viewBox="0 0 1024.000000 1024.000000"
 preserveAspectRatio="xMidYMid meet">

<g transform="translate(0.000000,1024.000000) scale(0.100000,-0.100000)"
fill="#000000" stroke="none">
<path d="M0 5120 l0 -5120 2725 0 2725 0 0 1985 0 1985 -670 0 -670 0 0 770 0
770 669 0 670 0 4 708 c3 660 5 716 25 839 108 674 426 1140 957 1406 274 136
568 203 945 214 254 7 970 -25 1193 -53 l47 -6 0 -688 0 -689 -517 -4 c-430
-3 -529 -7 -584 -20 -300 -73 -432 -220 -469 -527 -6 -48 -10 -321 -10 -632
l0 -548 765 0 766 0 -6 -32 c-3 -18 -48 -348 -100 -733 -52 -385 -98 -717
-101 -738 l-6 -37 -659 0 -659 0 0 -1985 0 -1985 1600 0 1600 0 0 5120 0 5120
-5120 0 -5120 0 0 -5120z"/>
</g>
</svg>
